<svg width="1251" height="216" viewBox="0 0 1251 216" fill="none" xmlns="http://www.w3.org/2000/svg">
<g clip-path="url(#clip0_108_54)">
<g clip-path="url(#clip1_108_54)">
<path d="M64.5007 215.132C28.8769 215.132 0 186.237 0 150.592V64.5398C0 28.8944 28.8769 0 64.5007 0H150.501C186.125 0 215.001 28.8944 215.001 64.5398V150.592C215.001 186.237 186.125 215.132 150.501 215.132H64.5007Z" fill="#398378"/>
<g clip-path="url(#clip2_108_54)">
<g clip-path="url(#clip3_108_54)">
<path d="M107.5 43.0261L51.7021 75.2957V139.835L107.5 172.104L163.297 139.835V75.2957L107.5 43.0261ZM76.9561 86.0522L107.5 49.5142L136.508 86.0522H76.9561ZM137.02 89.467L107.5 142.396L76.4442 89.467H137.02ZM104.258 143.42L56.9918 135.737L73.7141 91.5158L104.258 143.42ZM139.75 91.6866L158.008 135.908L110.742 143.591L139.75 91.6866ZM140.262 85.54L111.936 49.5142L158.008 76.1494L140.262 85.54ZM73.0315 85.54L56.9918 76.1494L102.722 49.6849L73.0315 85.54ZM71.3252 88.4425L55.1148 131.127V79.0519L71.3252 88.4425ZM105.793 147.177V167.153L57.845 139.493L105.793 147.177ZM109.206 147.177L157.155 139.493L109.206 167.153V147.177ZM142.139 88.4425L160.055 78.8812V131.639L142.139 88.4425Z" fill="white"/>
</g>
</g>
</g>
</g>
<g clip-path="url(#clip4_108_54)">
<g clip-path="url(#clip5_108_54)">
<g clip-path="url(#clip6_108_54)">
<g clip-path="url(#clip7_108_54)">
<path d="M312.824 172.004C306.079 172.004 299.311 171.032 292.52 169.087C285.707 167.142 279.476 163.848 273.829 159.204C268.158 154.582 263.608 148.233 260.179 140.157C256.749 132.104 255.034 121.901 255.034 109.546C255.034 97.0776 257.469 86.1761 262.339 76.8418C267.187 67.5303 273.84 60.2436 282.3 54.9816C290.76 49.7196 300.363 47.0886 311.109 47.0886C316.254 47.0886 321.204 47.5461 325.96 48.4613C330.693 49.3764 334.317 50.4059 336.832 51.5498L355.866 68.8801L343.862 86.8968L314.539 71.7971C308.137 71.7971 302.364 73.3414 297.219 76.43C292.075 79.5185 287.993 83.8883 284.975 89.5392C281.934 95.213 280.414 101.882 280.414 109.546C280.414 118.354 281.991 125.618 285.147 131.338C288.279 137.057 292.589 141.313 298.076 144.104C303.564 146.918 309.68 148.325 316.425 148.325C323.284 148.325 329.172 147.719 334.088 146.506C339.004 145.316 343.119 143.944 346.435 142.388C349.75 140.855 352.265 139.517 353.98 138.373V161.709C350.779 163.882 345.897 166.136 339.335 168.469C332.75 170.826 323.913 172.004 312.824 172.004ZM407.654 172.004C393.707 172.004 383.475 168.343 376.959 161.022C370.442 153.701 367.184 143.292 367.184 129.794C367.184 116.181 370.442 105.737 376.959 98.4617C383.475 91.2093 393.707 87.5831 407.654 87.5831C422.059 87.5831 432.371 91.2093 438.59 98.4617C444.832 105.737 447.953 116.181 447.953 129.794C447.953 143.292 444.832 153.701 438.59 161.022C432.371 168.343 422.059 172.004 407.654 172.004ZM407.654 154.845C412.341 154.845 416.194 153.015 419.212 149.354C422.253 145.694 423.774 139.174 423.774 129.794C423.774 120.413 422.253 113.893 419.212 110.233C416.194 106.572 412.341 104.742 407.654 104.742C402.853 104.742 398.931 106.572 395.89 110.233C392.872 113.893 391.363 120.413 391.363 129.794C391.363 139.174 392.907 145.694 395.993 149.354C399.08 153.015 402.967 154.845 407.654 154.845ZM486.879 170.288H462.872V76.2584L459.271 59.0997L462.872 48.8044H486.879V170.288ZM542.234 172.004C528.287 172.004 518.055 168.343 511.539 161.022C505.022 153.701 501.764 143.292 501.764 129.794C501.764 116.181 505.022 105.737 511.539 98.4617C518.055 91.2093 528.287 87.5831 542.234 87.5831C556.639 87.5831 566.962 91.2093 573.204 98.4617C579.423 105.737 582.533 116.181 582.533 129.794C582.533 143.292 579.423 153.701 573.204 161.022C566.962 168.343 556.639 172.004 542.234 172.004ZM542.234 154.845C546.921 154.845 550.785 153.015 553.826 149.354C556.844 145.694 558.353 139.174 558.353 129.794C558.353 120.413 556.844 113.893 553.826 110.233C550.785 106.572 546.921 104.742 542.234 104.742C537.433 104.742 533.523 106.572 530.505 110.233C527.464 113.893 525.943 120.413 525.943 129.794C525.943 139.174 527.487 145.694 530.573 149.354C533.66 153.015 537.547 154.845 542.234 154.845ZM621.802 170.288H598.138V116.581L594.536 99.4226L598.138 89.1274H614.6L618.03 93.0739C618.03 93.0739 618.807 92.582 620.362 91.5983C621.894 90.6374 624.089 89.6994 626.947 88.7842C629.805 87.8691 633.292 87.4115 637.407 87.4115C639.694 87.4115 641.98 87.5831 644.267 87.9263C646.553 88.2695 648.325 88.727 649.582 89.299L660.729 100.452L651.297 117.268L627.804 105.428L621.802 107.83V170.288ZM671.018 118.64L667.588 99.7658L672.904 89.299H691.596V96.6772L693.139 97.7068C694.397 96.5628 696.134 95.213 698.352 93.6573C700.593 92.1245 703.314 90.7289 706.515 89.4706C709.716 88.2123 713.317 87.5831 717.318 87.5831C729.208 87.5831 737.725 91.5296 742.869 99.4226C744.813 96.5628 747.865 93.8403 752.027 91.2551C756.211 88.6927 762.018 87.4115 769.449 87.4115C779.738 87.4115 787.455 90.3285 792.599 96.1625C797.744 101.996 800.316 110.175 800.316 120.699V142.663L803.917 159.821L800.316 170.288H776.48V120.013C776.48 115.666 775.303 112.326 772.947 109.992C770.615 107.636 767.277 106.458 762.933 106.458C758.474 106.458 754.896 107.716 752.198 110.233C749.523 112.749 748.185 116.067 748.185 120.185V120.871V170.288H724.178V120.185C724.178 115.838 723.229 112.486 721.331 110.13C719.456 107.796 716.518 106.629 712.517 106.629L695.026 109.889V170.288H671.018V118.64ZM853.819 172.004C846.388 172.004 839.757 170.688 833.927 168.057C828.096 165.426 823.524 161.022 820.208 154.845C816.893 148.668 815.235 140.318 815.235 129.794C815.235 119.613 817.007 111.434 820.551 105.257C824.095 99.0794 828.782 94.5839 834.613 91.7698C840.443 88.9787 846.845 87.5831 853.819 87.5831C861.478 87.5831 867.503 88.441 871.893 90.1569C876.306 91.8728 879.656 93.5315 881.942 95.1329L890.516 122.415L887.087 133.054H839.071C839.757 139.116 841.929 143.978 845.588 147.639C849.246 151.299 854.848 153.129 862.393 153.129C868.566 153.129 873.562 152.386 877.381 150.899C881.222 149.412 883.886 148.268 885.372 147.467V165.312C881.942 167.142 877.564 168.709 872.236 170.014C866.932 171.34 860.792 172.004 853.819 172.004ZM838.9 122.072L864.622 118.64L862.05 105.943C861.25 105.485 860.129 105.142 858.689 104.913C857.271 104.685 855.991 104.57 854.848 104.57C849.703 104.57 845.759 106.378 843.015 109.992C840.272 113.584 838.9 117.611 838.9 122.072ZM904.544 118.64L901.114 99.7658L906.43 89.299H925.122V96.6772L926.665 97.7068C927.922 96.5628 929.672 95.213 931.912 93.6573C934.13 92.1245 936.84 90.7289 940.041 89.4706C943.242 88.2123 946.843 87.5831 950.844 87.5831C962.734 87.5831 971.25 91.5296 976.395 99.4226C978.338 96.5628 981.402 93.8403 985.587 91.2551C989.748 88.6927 995.544 87.4115 1002.97 87.4115C1013.26 87.4115 1020.98 90.3285 1026.13 96.1625C1031.27 101.996 1033.84 110.175 1033.84 120.699V142.663L1037.44 159.821L1033.84 170.288H1010.01V120.013C1010.01 115.666 1008.84 112.326 1006.51 109.992C1004.15 107.636 1000.8 106.458 996.459 106.458C992 106.458 988.433 107.716 985.758 110.233C983.06 112.749 981.711 116.067 981.711 120.185V120.871V170.288H957.703V120.185C957.703 115.838 956.766 112.486 954.891 110.13C952.993 107.796 950.044 106.629 946.042 106.629L928.551 109.889V170.288H904.544V118.64ZM1089.23 172.004C1075.28 172.004 1065.05 168.343 1058.54 161.022C1052.02 153.701 1048.76 143.292 1048.76 129.794C1048.76 116.181 1052.02 105.737 1058.54 98.4617C1065.05 91.2093 1075.28 87.5831 1089.23 87.5831C1103.64 87.5831 1113.96 91.2093 1120.2 98.4617C1126.42 105.737 1129.53 116.181 1129.53 129.794C1129.53 143.292 1126.42 153.701 1120.2 161.022C1113.96 168.343 1103.64 172.004 1089.23 172.004ZM1089.23 154.845C1093.92 154.845 1097.78 153.015 1100.82 149.354C1103.84 145.694 1105.35 139.174 1105.35 129.794C1105.35 120.413 1103.84 113.893 1100.82 110.233C1097.78 106.572 1093.92 104.742 1089.23 104.742C1084.43 104.742 1080.52 106.572 1077.5 110.233C1074.46 113.893 1072.94 120.413 1072.94 129.794C1072.94 139.174 1074.48 145.694 1077.57 149.354C1080.66 153.015 1084.54 154.845 1089.23 154.845ZM1175.14 62.3598L1156.97 80.7196L1138.62 62.3598L1156.97 44L1175.14 62.3598ZM1168.8 170.288H1144.96V113.493L1141.36 99.7658L1144.79 89.299H1168.8V170.288ZM1211.67 170.288H1188.01V116.581L1184.4 99.4226L1188.01 89.1274H1204.47L1207.9 93.0739C1207.9 93.0739 1208.66 92.582 1210.2 91.5983C1211.75 90.6374 1213.96 89.6994 1216.81 88.7842C1219.67 87.8691 1223.16 87.4115 1227.27 87.4115C1229.56 87.4115 1231.85 87.5831 1234.13 87.9263C1236.42 88.2695 1238.19 88.727 1239.45 89.299L1250.6 100.452L1241.16 117.268L1217.67 105.428L1211.67 107.83V170.288Z" fill="#3D9970"/>
</g>
</g>
</g>
</g>
<defs>
<clipPath id="clip0_108_54">
<rect width="215" height="215.13" fill="white"/>
</clipPath>
<clipPath id="clip1_108_54">
<rect width="215" height="215.13" fill="white"/>
</clipPath>
<clipPath id="clip2_108_54">
<rect width="111.595" height="129.078" fill="white" transform="translate(51.7021 43.0261)"/>
</clipPath>
<clipPath id="clip3_108_54">
<rect width="111.595" height="129.078" fill="white" transform="translate(51.7021 43.0261)"/>
</clipPath>
<clipPath id="clip4_108_54">
<rect width="995.631" height="128.004" fill="white" transform="translate(255 44)"/>
</clipPath>
<clipPath id="clip5_108_54">
<rect width="995.631" height="128.004" fill="white" transform="translate(255 44)"/>
</clipPath>
<clipPath id="clip6_108_54">
<rect width="995.631" height="128.004" fill="white" transform="translate(255 44)"/>
</clipPath>
<clipPath id="clip7_108_54">
<rect width="995.631" height="128.004" fill="white" transform="translate(255 44)"/>
</clipPath>
</defs>
</svg>
